<?xml version="1.0" encoding="utf-8"?>
<!-- Generator: Adobe Illustrator 24.1.0, SVG Export Plug-In . SVG Version: 6.00 Build 0)  -->
<svg version="1.1" id="Layer_1" xmlns="http://www.w3.org/2000/svg" xmlns:xlink="http://www.w3.org/1999/xlink" x="0px" y="0px"
	 width="520px" height="250px" viewBox="0 0 520 250" style="enable-background:new 0 0 520 250;" xml:space="preserve">
<style type="text/css">
	.st0{fill:url(#SVGID_1_);}
	.st1{opacity:0.5;}
	.st2{fill:url(#SVGID_2_);}
	.st3{fill:url(#SVGID_3_);}
	.st4{opacity:8.000000e-02;fill:#FFFFFF;}
	.st5{opacity:0.25;fill:#FFFFFF;}
</style>
<g id="lover">
	
		<linearGradient id="SVGID_1_" gradientUnits="userSpaceOnUse" x1="234.1841" y1="92.4449" x2="-113.0383" y2="693.8517" gradientTransform="matrix(1 0 -8.550603e-02 -1.0084 10.6914 253.0426)">
		<stop  offset="0" style="stop-color:#FFFFFF;stop-opacity:8.000000e-02"/>
		<stop  offset="0.4561" style="stop-color:#FFFFFF;stop-opacity:3.000000e-02"/>
		<stop  offset="0.957" style="stop-color:#FFFFFF;stop-opacity:6.000000e-02"/>
	</linearGradient>
	<path class="st0" d="M544.5,273.5L3.8,260.9l-14-251.8c0,0,202.1,123.3,266.3,195.7c59.6,67.2,273.7-55.3,273.7-55.3L544.5,273.5z"
		/>
</g>
<g id="upper">
	<g>
		<g class="st1">
			
				<linearGradient id="SVGID_2_" gradientUnits="userSpaceOnUse" x1="-63.2921" y1="84.3743" x2="490.6805" y2="84.3743" gradientTransform="matrix(1 0 0 -1 0 252)">
				<stop  offset="0" style="stop-color:#FFFFFF;stop-opacity:5.000000e-02"/>
				<stop  offset="0.486" style="stop-color:#FFFFFF;stop-opacity:0.25"/>
				<stop  offset="1" style="stop-color:#FFFFFF;stop-opacity:8.000000e-02"/>
			</linearGradient>
			<path class="st2" d="M489.8,233.4c-33,29-73,48-118,58c-40,8-78,4-115-8c-35-12-64-33-88-61c-14-16-26-32-41-47
				c-15-13-32-22-52-25c-24-3-46,2-67,12c-3,2-6,3-9,5c-26,15-46,37-62,62c-3-39,1-77,1-116c39-40,91-68,148-73c60-5,119,18,159,65
				c12,15,24,28,38,41c2,1,5,3,7,5c26,18,55,23,85,16c52-12,91-51,114-96c3,48-3,96-1,144C488.8,221.4,487.8,227.4,489.8,233.4
				L489.8,233.4z"/>
		</g>
		<g class="st1">
			
				<linearGradient id="SVGID_3_" gradientUnits="userSpaceOnUse" x1="-67.419" y1="77.3911" x2="494.9725" y2="77.3911" gradientTransform="matrix(1 0 0 -1 0 252)">
				<stop  offset="0" style="stop-color:#FFFFFF;stop-opacity:5.000000e-02"/>
				<stop  offset="0.486" style="stop-color:#FFFFFF;stop-opacity:3.000000e-02"/>
				<stop  offset="1" style="stop-color:#FFFFFF;stop-opacity:8.000000e-02"/>
			</linearGradient>
			<path class="st3" d="M489.8,292.4c-79,51-183,65-270,23c-33-16-62-38-88-65c-2-2-6-4-8-6c-20-21-42-40-72-46c-50-9-92,24-118,62
				c-3-39,0-78,3-117c2-15,4-29,5-44c0-3,2-6,2-9c1-8,1-17,2-25c62-49,144-69,222-48c26,7,48,17,71,33c24,17,41,34,65,51
				c11,7,21,12,32,16c21,8,43,6,63-1c43-16,74-54,91-96c11,66,2,132-5,198C481.8,243.4,480.8,268.4,489.8,292.4L489.8,292.4z"/>
		</g>
	</g>
</g>
<path class="st4" d="M183.2-301.8l-542,876.2h213.2l540.4-876.2H183.2z M-260.6,554h-6l-5.5-11.5c-1.3-2.7-2.3-5.1-3.2-7.9h-0.2
	c-0.9,2.9-2,5.4-3.3,8l-5.8,11.5h-6l-10.9-24.1h6.7l4.8,12.3c1,2.7,2,5.2,2.7,7.7h0.2c0.8-2.4,2-5,3.2-7.6l5.9-12.3h5.5l5.6,12.1
	c1.3,2.9,2.4,5.4,3.2,7.9h0.2c0.6-2.4,1.6-5,2.8-7.8l5.1-12.1h6.5L-260.6,554z M-214.2,542.7h-25.3c0.1,5.9,5.8,8.4,12.4,8.4
	c4.7,0,7.5-0.5,10-1.2l1.1,3.1c-2.3,0.7-6.2,1.5-12,1.5c-11.1,0-17.7-4.9-17.7-12.2c0-7.3,6.4-13,16.9-13c11.8,0,14.9,6.9,14.9,11.4
	C-214,541.6-214.2,542.3-214.2,542.7z M-188,554.6c-5.2,0-9.4-1.3-12.1-4.5h-0.2l-0.3,4h-5.7c0.1-1.6,0.3-4.1,0.3-6.2v-29.2h6.5
	v15.2h0.1c2.3-2.7,6.5-4.4,12.3-4.4c8.9,0,15.3,5,15.2,12.3C-171.8,550.3-180,554.6-188,554.6z M208.7-256.1
	c-3.9,0-7.6-0.6-10.1-1.6l1.6-3.3c1.9,0.8,5.4,1.7,8.6,1.7c4.8,0,7-1.6,7-3.6c0-2.1-1.9-3.2-6.7-4.4c-6.5-1.5-9.5-3.9-9.5-6.8
	c0-3.9,4.7-7.1,12.4-7.1c3.6,0,6.8,0.7,8.9,1.5l-1.6,3.2c-1.4-0.6-4-1.4-7.4-1.4c-3.9,0-6,1.5-6,3.3c0,2,2.2,2.9,6.8,4.1
	c6.3,1.6,9.4,3.7,9.4,7.3C222.2-259.1,217.3-256.1,208.7-256.1z M237.1-256.6h-6.5V-292h6.5V-256.6z M268.1-256.6l-0.5-3h-0.2
	c-2,1.9-5.9,3.6-11,3.6c-7.3,0-11-3.4-11-6.9c0-5.8,7.7-9,21.7-9v-0.5c0-2-0.8-5.6-8.2-5.6c-3.3,0-6.8,0.7-9.4,1.8l-1.5-2.9
	c3-1.3,7.3-2.1,11.8-2.1c11,0,13.7,5,13.7,9.9v9c0,2.1,0.2,4.1,0.6,5.8H268.1z M291.6-256.1c-3.9,0-7.6-0.6-10.1-1.6l1.6-3.3
	c1.9,0.8,5.4,1.7,8.6,1.7c4.8,0,7-1.6,7-3.6c0-2.1-1.9-3.2-6.7-4.4c-6.5-1.5-9.5-3.9-9.5-6.8c0-3.9,4.7-7.1,12.4-7.1
	c3.6,0,6.8,0.7,8.9,1.5l-1.6,3.2c-1.4-0.6-4-1.4-7.4-1.4c-3.9,0-6,1.5-6,3.3c0,2,2.2,2.9,6.8,4.1c6.2,1.6,9.4,3.7,9.4,7.3
	C305-259.1,300.1-256.1,291.6-256.1z M337.5-256.6v-13.9c0-3.9-2.2-7.2-8.3-7.2c-4.2,0-7.6,2-8.8,4.4c-0.4,0.6-0.4,1.2-0.4,2.1v14.6
	h-6.5V-292h6.5v15.1h0.2c1-1.2,2.7-2.3,4.7-3.1c1.9-0.7,4.2-1.2,6.7-1.2c4.8,0,12.6,2,12.6,10.3v14.4H337.5z"/>
<path class="st5" d="M789.4,497.3L295-336.4l-92.7,147.4l495.1,832.7L789.4,497.3z M269.2-257.9l2.6-4.1l12,2.2
	c2.8,0.5,5.2,1.1,8,1.9l0.1-0.1c-2-2.1-3.6-4.2-5.2-6.4l-7-10l2.6-4.1l24.8,5.1l-2.9,4.6l-12.3-3.1c-2.7-0.7-5.2-1.3-7.6-2.2
	l-0.1,0.2c1.7,1.8,3.3,4,5,6.2l7.7,10.5l-2.4,3.8l-12.5-2.5c-3-0.6-5.6-1.2-8-1.9l-0.1,0.2c1.8,1.7,3.5,3.7,5.3,6l7.9,9.9l-2.8,4.5
	L269.2-257.9z M258.5-220l11-17.5c-5-3-9.5-0.4-12.4,4.2c-2,3.2-2.8,5.5-3.3,7.5l-3.1-0.9c0.4-2,1.5-5.1,4-9.1
	c4.8-7.7,11.8-9.7,17.8-5.9c6.1,3.8,8.1,11.2,3.5,18.5c-5.1,8.1-12.2,6.7-15.9,4.3C259.3-219.2,258.8-219.7,258.5-220z M237.2-208
	c2.3-3.6,5.2-5.8,9-6l0.1-0.2l-3.2-2.3l2.5-3.9c1.3,1,3.3,2.3,5.1,3.5l24.3,15.3l-2.8,4.5l-12.6-7.9l-0.1,0.1
	c1.2,3,0.9,6.8-1.6,10.8c-3.9,6.2-10.8,7.9-16.9,4C233.8-194.6,233.7-202.4,237.2-208z M740.2,491c1.7-2.7,3.8-4.9,5.8-6.1l2.1,2.9
	c-1.5,0.9-3.8,2.8-5.2,5.1c-2.1,3.3-1.7,5.7,0,6.7c1.7,1.1,3.5,0.4,6.6-2.3c4.1-3.7,7.4-4.5,9.8-3c3.2,2,3.9,7,0.5,12.3
	c-1.6,2.5-3.6,4.4-5.1,5.3l-1.9-2.8c1.1-0.7,2.9-2,4.4-4.4c1.7-2.7,1.4-5-0.1-5.9c-1.7-1-3.3,0-6.4,2.6c-4,3.5-7.2,4.6-10.2,2.7
	C736.9,501.8,736.5,496.9,740.2,491z M728.3,510.9l2.8-4.5l29.5,18.5l-2.8,4.5L728.3,510.9z M714.8,532.3l2.8,1.2l0.1-0.2
	c-0.7-2.4-0.4-5.9,1.8-9.5c3.2-5,7.7-5.8,10.6-4c4.9,3.1,4.2,10.1-1.9,19.7l0.4,0.3c1.7,1,5,2.4,8.2-2.7c1.5-2.3,2.4-5.1,2.6-7.4
	l3.1,0.5c-0.2,2.7-1.4,6.2-3.4,9.3c-4.8,7.6-10.1,6.8-14.2,4.3l-7.5-4.7c-1.7-1.1-3.5-2.1-5.1-2.6L714.8,532.3z M704.2,548.3
	c1.7-2.7,3.8-4.9,5.8-6.1l2.1,2.9c-1.5,0.9-3.8,2.8-5.2,5.1c-2.1,3.3-1.7,5.7-0.1,6.7c1.7,1.1,3.5,0.4,6.6-2.3
	c4.1-3.7,7.4-4.5,9.8-3c3.2,2,3.9,7,0.5,12.3c-1.6,2.5-3.6,4.4-5.1,5.3l-1.9-2.8c1.1-0.7,2.9-2,4.4-4.4c1.7-2.7,1.4-5-0.1-5.9
	c-1.7-1-3.3,0-6.4,2.6c-4,3.5-7.2,4.6-10.2,2.7C700.9,559.1,700.5,554.2,704.2,548.3z M684.6,580.3l11.6,7.3c3.2,2,6.9,2.3,9.6-2
	c1.8-2.9,1.6-6.3,0.2-8.4c-0.3-0.6-0.8-1-1.6-1.4l-12.1-7.6l2.8-4.5l29.5,18.5l-2.8,4.5l-12.5-7.9l-0.1,0.1c0.6,1.4,0.8,3.1,0.5,4.9
	c-0.2,1.7-0.8,3.6-1.9,5.3c-2.1,3.3-7.1,7.7-14.1,3.3l-12-7.5L684.6,580.3z"/>
</svg>
