<?xml version="1.0" encoding="utf-8"?>
<!-- Generator: Adobe Illustrator 24.1.0, SVG Export Plug-In . SVG Version: 6.00 Build 0)  -->
<svg version="1.1" xmlns="http://www.w3.org/2000/svg" xmlns:xlink="http://www.w3.org/1999/xlink" x="0px" y="0px" width="520px"
	 height="520px" viewBox="0 0 520 520" style="enable-background:new 0 0 520 520;" xml:space="preserve">
<style type="text/css">
	.st0{fill:#BABABA;}
	.st1{fill:#FFFFFF;}
</style>
<g id="cup">
	<ellipse class="st0" cx="260" cy="195.3" rx="111" ry="25"/>
</g>
<g id="Layer_3">
	<g>
		<path class="st1" d="M315.3,192.3c-0.6,0.2-1.2,0.6-1.7,1c-2.5,2.3-4.4,5.2-5.9,8.5c-0.4,1-0.7,2.2-0.8,3.3
			c-0.2,1.1,0.5,1.9,1.9,1.9c0.3-0.3,1-0.6,1.5-1.2c2.5-2.9,4.4-6.4,5.7-10.2c0.2-0.7,0.4-1.5,0.4-2.2
			C316.6,192.5,316.1,192.1,315.3,192.3z"/>
		<path class="st1" d="M343.4,195c-1.2,2.1-2.4,4.3-3.7,6.6c0.9,1.1,1.8,2.2,2.8,3.2c0.6,0.6,1.1,0.4,1.2-0.4
			c0.1-0.7,0.1-1.4,0.1-2.1C343.6,199.9,343.5,197.4,343.4,195z"/>
		<path class="st1" d="M408,75.9c-4.2-3.6-9.4-6.7-14.7-8.9c-14.6-6.2-30.5-8.1-46.3-10c-25.8-3.1-51.7-3.9-77.7-3.9
			c-28.9,0.1-57.6,1.2-86.3,4.5c-16,1.8-32,4.2-47.4,8.8c-9.2,2.7-17.8,6.4-24.4,13c-6.5,6.4-7.2,14.2-1.6,21.1
			c2.5,3.1,6.1,5.7,9.4,8.2c1.4,1.1,2.3,1.9,2.5,3.7c1.2,9.6,2.5,19.3,3.8,28.9c2.3,17.4,4.7,34.7,7.1,52.1
			c2.4,17.8,4.8,35.6,7.2,53.4c2.7,20.3,5.5,40.5,8.3,60.8c2.4,17.5,4.8,35.1,7.2,52.6c2.5,18.5,5.5,37,7.5,55.6
			c1.3,11.7,6.6,21.2,16.1,29c12,9.9,26.5,15.2,42.2,18.3c17.5,3.5,35.2,4.3,53.1,3.5c15.1-0.7,29.9-2.5,44.3-6.8
			c14-4.2,26.6-10.3,36.4-20.4c6-6.2,10.3-13.2,11-21.6c0.6-7.3,1.6-14.6,2.4-21.9c2.6-23.8,5.3-47.6,7.8-71.4
			c2.4-22.1,4.7-44.3,7-66.5c2.6-24.2,5.2-48.3,7.8-72.5c2.7-25.6,5.3-51.2,8.1-76.8c0.1-1.1,1.1-2.2,2-3c2.9-2.7,6.4-5,8.9-7.9
			C415.9,90.6,415.3,82.2,408,75.9z M179.1,210.3c-4.2,1-8.4-2.3-9.2-7.1c-0.1-0.3-0.1-0.7-0.1-1c0-1.6,0.7-2.2,1.9-1.8
			c1.5,0.5,2.6,1.4,2.6,3.7c0,1.8,1.7,2.9,3.3,2.1c1-0.5,2-1.3,2.8-2.2c1.5-2,3-4.2,4.3-6.4c2.7-4.9,5.3-10,7.9-14.9
			c0.1-0.1,0.1-0.3,0.2-0.5c-0.2,0-0.4,0-0.5,0.1c-1.6,0.6-2.7-1.1-2.5-3c0-0.2,0.5-0.6,0.7-0.6c1.5-0.2,3-0.3,4.5-0.5
			c2.2-0.2,4.4-0.4,6.6-0.5c1.1-0.1,2.1,0.4,2.9,1.2c0.3,0.3,0.4,0.9,0.6,1.4c0.7,0,1.5,0,2.4,0.1c0.9,0.1,1.7,0.7,1.8,1.8
			c0.2,1.2-0.3,2.2-1.1,2.9c-1.1,0.9-2.3,1.1-3.5,0.7c-1-0.3-1.7-1-1.9-2.2c-0.2-1.2,0.3-2,1.1-2.7c-1.7,0-3.4,0-5.3,0.1
			c0.8,0.9,0.5,1.7,0,2.5c-2,3.7-3.9,7.4-5.9,11.2c-2,3.9-4.2,7.7-6.9,11C183.9,207.9,181.8,209.7,179.1,210.3z M223,207.4
			c0.8-0.4,1.6-1,2.3-1.7c1-0.9,1.9-2,2.9-3c0.4-0.4,0.7-0.8,1.2-1.1c0.5-0.3,0.7-0.1,0.6,0.5c-0.1,0.4-0.2,0.9-0.4,1.2
			c-1.4,2.2-3,4.4-5.1,5.7c-0.8,0.5-1.7,0.8-2.6,0.9c-2.5,0.2-4.1-2.2-3.5-5.2c0.5-2.5,1.6-4.7,2.7-6.9c0.1-0.3,0.3-0.5,0.4-0.8
			c-1,1.1-1.9,2.1-2.8,3.2c-2.3,2.9-4.5,5.8-6.7,8.7c-0.9,1.1-1.6,1.1-2.6,0.1c-1-1-1.3-1.9-0.6-3.1c1.8-3.4,3.6-6.7,5.5-10.1
			c0.2-0.3,0.4-0.7,0.5-1.2c-0.7,0.6-1.4,1.2-1.9,1.9c-2.9,3.7-5.9,7.4-8.8,11.1c-0.4,0.5-0.9,1.1-1.3,1.7c-0.9,1.1-1.5,1.2-2.5,0.4
			c-0.4-0.4-0.8-0.9-1.2-1.3c-0.5,0.4-1.1,0.8-1.7,1.3c-1.3,0.9-2.5,1.3-3.8,0.2c-1.3-1.2-2.1-2.8-1.7-4.8c0.2-1.5,0.7-2.9,1.3-4.3
			c1.8-4.3,4.3-8,6.7-11.7c0.5-0.8,1.2-1.1,1.9-0.6c0.6,0.4,1.3,0.8,1.8,1.3c0.9,0.8,0.9,1.3,0.1,2.4c-1.5,2.2-3.1,4.3-4.4,6.7
			c-1.4,2.4-2.6,5-3.8,7.5c-0.2,0.4-0.3,1-0.5,1.8c0.7-0.3,1.1-0.4,1.5-0.6c1.9-1.3,3.7-2.9,4.9-5.1c2.4-4.3,4.8-8.5,7.2-12.7
			c0.7-1.3,1.2-1.4,2.3-0.9c0.2,0.1,0.4,0.2,0.6,0.4c1.5,1,1.7,1.8,0.6,3.5c-1.4,2.3-2.9,4.5-4.4,6.8c-0.1,0.2-0.3,0.4-0.3,0.8
			c0.2-0.2,0.4-0.4,0.6-0.6c2.7-3.2,5.4-6.5,8.1-9.7c1-1.2,1.2-1.3,2.3-0.3c0.7,0.6,1.3,1.3,1.9,2c0.7,0.9,0.7,1.3,0,2.2
			c-1.6,2.4-3.3,4.8-5,7.3c-0.1,0.2-0.2,0.4-0.3,0.7c0.2-0.2,0.4-0.4,0.6-0.6c3.7-3.9,7.3-7.9,10.9-11.7c1.2-1.3,1.5-1.2,2.6,0.1
			c0.2,0.2,0.4,0.4,0.6,0.6c0.8,0.8,0.8,1.9,0.1,2.8c-2.5,3.2-4.8,6.6-6.7,10.4c-0.4,0.8-0.8,1.7-1,2.7
			C221.5,207.3,222.1,207.9,223,207.4z M255.1,208.3c-0.9,2-1.2,2.1-3,1.3c-0.3-0.1-0.6-0.3-0.8-0.4c-1.7-0.8-2.2-2-1.3-3.9
			c1.1-2.4,2.2-4.7,3.4-7c0.1-0.3,0.3-0.6,0.5-1.1c-1.3,0.2-2.5,0.3-3.6,0.5c-1.3,0.2-2.6,0.3-3.8,0.6c-0.3,0.1-0.7,0.3-0.9,0.6
			c-1.7,3.2-3.3,6.4-4.9,9.7c-0.5,1.1-1.2,1.9-2.3,1.7c-1.3-0.3-2.5-0.9-2.9-2.6c-0.1-0.5,0-1.3,0.3-1.7c1-2,2-3.9,3.1-5.8
			c0.1-0.3,0.3-0.5,0.5-0.9c-0.4,0-0.6,0-0.9,0.1c-1.6,0.5-2.8-1.3-3-2.8c-0.1-0.8,0.1-1.3,0.8-1.4c1.7-0.3,3.4-0.6,5.2-0.8
			c0.5-0.1,0.8-0.3,1.1-0.8c2.7-4.9,5.4-9.8,8-14.6c0.7-1.2,1.1-1.4,2.3-0.9c0.7,0.3,1.3,0.6,1.9,1.1c1,0.7,1.1,1.4,0.4,2.5
			c-1.9,3.3-3.7,6.7-5.6,10c-0.3,0.5-0.6,1.1-1,1.8c2.5-0.2,4.8-0.5,7.2-0.7c0.4,0,0.8-0.4,1-0.7c2.5-4.6,5-9.3,7.4-13.9
			c0.5-0.9,0.8-2,2-2.1c1.4,0,2.8,0.5,3.8,1.7c0.6,0.8,0.7,1.8,0,2.6C263.8,188.7,259.7,198.5,255.1,208.3z M263.9,208.4
			c-0.1-0.1-0.2-0.3-0.4-0.4c-2.2-2.4-3-4.1-1.6-8.5c1.5-4.7,4.3-8.3,7.7-11.1c1.5-1.2,2.5-1,3.9,0.3c0.5,0.5,1.1,1,1.7,1.5
			c1.4,0.9,2.1,2.3,2.1,3.7c0.1,2.6-0.5,4.5-1.3,6.3c-1.5,3.5-3.3,6.7-6,9C267.8,211,265.9,210.8,263.9,208.4z M311.5,209.5
			c-1.8,1.4-3.5,1-5.3-0.7c-1-0.9-2-1.8-3-2.7c-0.7,0.7-1.7,1.9-2.8,2.9c-1.3,1.2-2.8,2.2-4.6,1.2c-1.4-0.7-2.5-1.8-3.3-3.3
			c-0.1-0.2-0.2-0.4-0.3-0.5c-1.2,1.1-2.3,2.2-3.5,3.2c-1.5,1.2-3.1,1.5-4.8,0c-1.7-1.6-2.3-3.6-1.9-6c0.5-2.6,1.7-4.8,2.9-6.8
			c0.8-1.3,1.6-2.4,2.6-3.9c-1.2,0-2.2,0-3.2,0.1c-0.2,0-0.4,0.4-0.6,0.7c-1.7,3.3-3.3,6.7-5.1,10c-0.8,1.5-1.6,3-2.5,4.4
			c-0.3,0.4-0.9,0.7-1.3,0.7c-0.7,0-1-1-0.7-1.9c0.3-0.6,0.7-1.1,1-1.7c2-3.8,3.9-7.5,5.8-11.3c0.4-0.7,0.5-1.4,0.4-2.2
			c-0.2-1.1,0-2.1,0.5-2.9c0.9-1.3,1.7-2.6,2.7-3.7c0.4-0.4,1.1-0.5,1.6-0.7c0.6-0.1,1,0.3,0.8,1c-0.2,0.8-0.4,1.6-0.7,2.6
			c1.5-0.2,2.9-0.4,4.3-0.7c1.6-0.3,2-0.1,2.7,1.4c0.9,1.9,0.9,2.9-0.1,4.1c-2.5,3.1-4.7,6.5-6.4,10.3c-0.4,0.8-0.7,1.8-0.9,2.7
			c-0.2,1.1,0.3,1.6,1.2,1.3c0.5-0.1,0.9-0.4,1.4-0.7c0.6-0.5,1.2-1,1.9-1.6c1.1-1,1.8-2.3,2.4-3.9c1-3,2.4-5.8,3.6-8.7
			c0.2-0.4,0.4-0.9,0.7-1.4c-0.3,0-0.6,0-0.8-0.1c-0.6-0.3-1.3-0.5-1.8-1c-0.4-0.4-0.5-1.2-0.7-1.8c0.5-0.1,0.9-0.4,1.4-0.4
			c1,0,1.9,0.1,2.9,0c0.3,0,0.7-0.3,0.9-0.6c1.4-2.7,2.9-5.3,4.2-8c0.4-0.8,0.9-1.1,1.7-0.6c0.8,0.5,1.7,1.1,2.4,1.8
			c0.9,0.8,0.8,1.3,0.2,2.3c-1.1,1.6-2.2,3.2-3.4,5c0.7,0,1.1,0,1.6,0c0.7,0,1.5,0,2.2-0.1c1-0.1,1.7,0.2,1.9,1.5
			c0.6-0.4,1-0.8,1.5-1.2c1.1-0.8,2.2-0.7,3.3,0.2c1,0.8,1.9,1.5,2.9,2.3c1.7,1.4,1.8,3.4,1.6,5.3c-0.4,4-2,7.3-4.1,10.3
			C313.9,207.3,312.8,208.5,311.5,209.5z M348.9,187.7c-0.3,0.7-0.6,1.5-0.7,2.4c-0.6,5-0.6,10.2-0.1,15.5c0,0.4,0.1,0.8,0.1,1.1
			c0,1.6-0.5,2.9-1.7,3.5c-1.2,0.7-2.5,0.1-3.6-0.9c-1.5-1.3-2.5-3-3.4-4.8c-0.2-0.4-0.4-0.9-0.7-1.5c-0.7,1.1-1.4,2.1-2.1,3.1
			c-1.1,1.5-2.4,2.9-4.3,3.3c-2.9,0.6-5-1.8-4.7-5.2c0.2-2.3,1-4.4,1.9-6.4c0.1-0.3,0.3-0.5,0.3-0.9c-0.4,0.4-0.8,0.8-1.2,1.3
			c-2.2,3.1-4.3,6.3-6.5,9.5c-0.4,0.6-0.9,1.2-1.3,1.9c-0.4,0.6-0.9,0.7-1.5,0.4c-0.6-0.3-1.1-0.6-1.6-1.1c-1-0.9-1.2-1.7-0.7-2.9
			c2.2-5.7,4.3-11.2,6.5-16.8c0.4-1.1,1-1.3,2.1-0.8c0.1,0.1,0.2,0.1,0.3,0.2c2.4,1.4,2.6,1.9,1.5,4.4c-1.3,3-2.7,6-3.9,9.1
			c0.2-0.2,0.3-0.5,0.5-0.7c2.8-4.1,5.6-8.2,8.4-12.3c0.9-1.3,1.3-1.3,2.6-0.4c0,0,0.1,0,0.1,0.1c2.5,1.8,2.6,2.3,1.3,4.9
			c-1.5,3-2.9,6.1-4.3,9.2c-0.3,0.6-0.4,1.3-0.4,2c0,0.4,0.3,1.1,0.6,1.3c0.3,0.2,0.8,0.2,1.1-0.1c0.6-0.5,1.2-1.1,1.7-1.8
			c3.1-4.6,5.3-9.8,7.6-14.9c0.6-1.4,1.2-2.9,1.8-4.3c0.5-1.1,0.9-1.3,2-0.8c0.8,0.4,1.6,1,2.3,1.6
			C349.1,186.6,349.2,187.1,348.9,187.7z M403.3,94.5c-3.9,5-9.2,8.3-15.2,10.9c-14.7,6.3-30.3,9.9-46.2,12.5
			c-34.9,5.7-70.1,7-105.5,6.3c-24.9-0.5-49.5-2.5-73.8-7.4c-11.9-2.4-23.5-5.4-34.4-10.4c-5-2.3-8.9-5.5-11.8-9.8
			c-3.7-5.6-3-10.9,2.3-15.5c4.7-4.1,10.5-6.4,16.5-8.4c14.4-4.6,29.4-6.9,44.5-8.7c28.3-3.5,56.7-5,90.5-5.1
			c22.8-0.2,50.8,0.8,78.6,4.1c12.8,1.5,25.6,3.2,37.5,7.7c5.4,2,10.7,4.8,15.2,8.2C407.4,83.2,407.7,88.9,403.3,94.5z"/>
		<path class="st1" d="M273.8,192.6c-0.6,0.2-1.3,0.6-1.8,1c-2.5,2.2-4.5,5.1-6,8.4c-0.4,1-0.7,2.1-0.9,3.2
			c-0.2,1.2,0.4,1.9,1.8,1.9c0.3-0.3,1-0.6,1.5-1.2c2.6-2.9,4.6-6.3,6.1-10.1c0.3-0.7,0.4-1.5,0.5-2.2
			C274.9,192.8,274.5,192.4,273.8,192.6z"/>
		<path class="st1" d="M303.2,190c-0.3,0-0.7,0.3-0.8,0.6c-1.2,2.1-2.4,4.3-3.5,6.5c-1.1,2.5-2.1,5.2-3,7.8
			c-0.3,0.9-0.6,2.1,0.3,2.9c0.9,0.8,1.7,0.1,2.4-0.5c1.4-1.2,2.7-2.6,4-4c0.2-0.2,0.2-0.6,0.3-0.9c0.4-1.6,0.6-3.3,1.1-4.9
			c1-2.9,2.7-5.3,4.8-7.7C306.8,190,305,190,303.2,190z"/>
	</g>
</g>
<g id="jim_hortons">
	<g id="o5zDhU.tif">
		<g>
			<path d="M92.3-43.1c3.1-0.4,6.1-0.7,9-1.2c3.3-0.5,4.1-0.2,5.5,2.5c1.7,3.3,1.5,5-0.8,7.1c-5.5,5.3-10.3,11.1-14.3,17.7
				c-0.9,1.4-1.5,3-2,4.6c-0.6,1.8,0.4,2.7,2.3,2.3c1-0.2,2-0.6,2.8-1.1c1.4-0.8,2.6-1.8,3.9-2.7c2.4-1.7,4-3.9,5.3-6.6
				c2.5-5.1,5.5-10,8.3-15c0.4-0.8,1-1.5,1.6-2.5c-0.7,0-1.2,0.1-1.6-0.1c-1.2-0.5-2.6-0.9-3.5-1.7c-0.7-0.7-0.9-2.1-1.3-3.1
				c1-0.2,1.9-0.7,2.9-0.7c2-0.1,4,0.2,6,0.1c0.7,0,1.5-0.4,1.9-1c3.3-4.7,6.6-9.4,9.8-14.1c1-1.5,2.1-1.9,3.5-1.1
				c1.7,1,3.3,2,4.8,3.2c1.7,1.4,1.6,2.3,0.1,4c-2.5,2.8-4.9,5.6-7.7,8.8c1.4,0,2.3,0,3.2,0c1.5,0,3.1,0,4.6-0.1
				c2-0.2,3.4,0.3,3.6,2.6c1.2-0.7,2.2-1.4,3.3-2c2.3-1.3,4.6-1.1,6.7,0.5c1.8,1.4,3.6,2.7,5.4,4.1c3.1,2.4,3.1,5.8,2.3,9.1
				c-1.5,6.7-5.3,12.4-9.9,17.3c-2.1,2.3-4.6,4.4-7.3,6c-3.8,2.4-7.1,1.7-10.4-1.2c-1.8-1.6-3.7-3-5.6-4.5c-1.5,1.2-3.6,3.1-6,4.8
				c-2.8,2-5.9,3.7-9.5,2.1c-2.7-1.2-4.8-3.1-6.2-5.6c-0.2-0.3-0.4-0.7-0.5-0.9c-2.5,1.8-4.9,3.7-7.5,5.4c-3.2,2.1-6.5,2.6-9.8,0
				c-3.4-2.6-4.4-6-3.3-10.1c1.2-4.5,3.8-8.2,6.7-11.7c1.7-2.2,3.6-4.2,5.8-6.7c-2.4,0-4.6-0.1-6.6,0.1c-0.4,0-0.9,0.7-1.3,1.2
				c-3.8,5.7-7.5,11.5-11.3,17.2c-1.7,2.5-3.5,5-5.4,7.4c-0.6,0.7-1.8,1.2-2.7,1.2c-1.5-0.1-2.1-1.8-1.3-3.2c0.6-1,1.4-1.9,2.1-2.9
				C72.1-20,76.4-26.5,80.7-33c0.8-1.2,1.2-2.4,0.9-3.8c-0.3-1.9,0.1-3.6,1.4-5.1c1.9-2.2,3.8-4.5,5.9-6.5c0.8-0.8,2.3-0.9,3.5-1.1
				c1.3-0.2,2,0.5,1.6,1.8C93.5-46.2,93-44.8,92.3-43.1z M138-39.4c-4.1,0-7.7,0-11.4,0c-0.6,0-1.4,0.5-1.8,1
				c-2.7,3.7-5.5,7.3-7.9,11.3c-2.6,4.3-4.8,8.8-7,13.3c-0.7,1.5-1.4,3.5,0.3,4.8c1.7,1.3,3.5,0.2,4.9-0.8c2.9-2.1,5.7-4.4,8.6-6.7
				c0.4-0.3,0.5-0.9,0.7-1.4c0.9-2.8,1.6-5.7,2.9-8.3C129.7-31.2,133.5-35.2,138-39.4z M135.5-10.1c0.7-0.5,2.1-1.1,3.2-2.1
				c5.4-4.9,9.8-10.7,13.1-17.2c0.6-1.2,1-2.5,1.2-3.8c0.3-1.6-0.5-2.5-2.1-2c-1.3,0.3-2.6,1-3.6,1.7c-5.4,3.9-9.7,8.8-13.1,14.6
				c-1,1.7-1.7,3.7-2.2,5.6C131.5-11.4,132.8-10.1,135.5-10.1z"/>
			<path d="M-45.4-27.8c-2,1.9-4,3.7-5.9,5.6c-4.7,5-9.3,10.1-14,15.1c-1.8,1.9-3.3,1.9-5.7,0.1c-2.3-1.7-2.9-3.4-1.6-5.5
				c3.7-5.9,7.4-11.8,11.1-17.7c0.4-0.6,0.8-1.2,0.9-2.1c-1.4,1.1-2.9,2.1-4.1,3.4c-6.1,6.5-12.2,13-18.2,19.5
				c-0.9,1-1.8,1.9-2.7,2.9c-1.9,2-3,2.1-5.3,0.7c-1-0.6-1.8-1.5-2.8-2.3c-1.1,0.7-2.3,1.5-3.5,2.2c-2.6,1.6-5.3,2.3-8.1,0.3
				c-3-2-4.8-4.8-4.3-8.4c0.4-2.6,1.2-5.2,2.3-7.6c3.5-7.6,8.5-14.3,13.6-20.9c1.1-1.5,2.5-1.9,4.2-1.1c1.4,0.7,2.9,1.4,4.1,2.3
				c2,1.5,2,2.3,0.5,4.3C-88-33-91.2-29.2-94-25.1c-2.8,4.2-5.1,8.8-7.5,13.3c-0.4,0.8-0.5,1.8-0.8,3.2c1.4-0.5,2.3-0.6,3.1-1.1
				c4-2.3,7.7-5,10.2-9c4.8-7.6,9.7-15,14.6-22.5c1.5-2.3,2.4-2.6,5-1.6c0.5,0.2,0.9,0.4,1.4,0.7c3.4,1.9,3.8,3.3,1.5,6.3
				c-3,4.1-6.1,8.1-9.1,12.1c-0.3,0.4-0.6,0.8-0.7,1.4c0.4-0.3,0.8-0.7,1.2-1c5.7-5.7,11.3-11.4,17-17.2c2-2.1,2.5-2.2,4.9-0.6
				c1.5,1.1,3,2.3,4.3,3.6c1.5,1.6,1.5,2.3,0.1,4c-3.4,4.3-6.9,8.6-10.4,12.8c-0.2,0.3-0.5,0.6-0.5,1.2c0.4-0.4,0.8-0.8,1.2-1.1
				c7.7-6.9,15.3-13.9,23-20.7c2.6-2.3,3.1-2.2,5.6,0.2c0.4,0.4,0.8,0.8,1.3,1.1c1.7,1.5,1.8,3.3,0.2,5
				c-5.2,5.7-10.2,11.6-14.1,18.3c-0.8,1.4-1.6,3-1.9,4.7c-0.5,2.1,0.8,3.1,2.7,2.3c1.7-0.7,3.3-1.8,4.8-2.9c2.1-1.6,4-3.5,6.1-5.2
				c0.8-0.7,1.6-1.3,2.4-1.8c1-0.6,1.6-0.2,1.4,0.9c-0.1,0.7-0.3,1.5-0.7,2.1c-3,3.9-6.2,7.6-10.7,9.8c-1.7,0.8-3.6,1.4-5.5,1.5
				c-5.3,0.3-8.8-3.8-7.8-9c0.9-4.4,3.1-8.2,5.4-12C-46-26.9-45.7-27.3-45.4-27.8z"/>
			<path d="M12.1-33.9c5.3-0.4,10.3-0.7,15.2-1.2c0.8-0.1,1.7-0.6,2.1-1.3c5.5-8.2,10.9-16.4,16.4-24.6c1.1-1.6,1.9-3.7,4.3-3.7
				c3.1,0,5.8,0.9,8,3.2c1.3,1.4,1.3,3.2-0.1,4.8c-13,14.7-22.2,31.8-32,48.6c-2,3.4-2.5,3.6-6.2,2.1c-0.6-0.2-1.2-0.5-1.7-0.7
				c-3.6-1.4-4.5-3.4-2.6-6.7c2.3-4.1,4.8-8.1,7.2-12.1c0.3-0.5,0.6-1,1.1-1.8c-2.7,0.3-5.2,0.5-7.7,0.8c-2.7,0.3-5.4,0.5-8.1,1
				c-0.7,0.1-1.5,0.6-1.8,1.1C2.5-19.1-1-13.5-4.5-7.9C-5.6-6.1-6.9-4.6-9.3-5c-2.8-0.5-5.2-1.6-6.2-4.4c-0.3-0.9,0-2.2,0.5-3
				c2-3.4,4.3-6.7,6.4-10c0.3-0.5,0.6-0.9,1-1.6c-0.8,0.1-1.3,0-1.8,0.1c-3.3,0.9-6-2.4-6.5-4.9c-0.3-1.3,0.3-2.2,1.7-2.4
				c3.7-0.5,7.3-0.9,11-1.3c1.1-0.1,1.7-0.5,2.3-1.4c5.8-8.7,11.6-17.4,17.4-26c1.5-2.3,2.4-2.6,5-1.7c1.4,0.5,2.9,1.1,4.1,2
				c2.1,1.4,2.2,2.5,0.8,4.5c-4.1,5.9-8.1,11.9-12.2,17.8C13.6-36.2,12.9-35.2,12.1-33.9z"/>
			<path d="M195.7-16.6c-1.7,1.8-3.2,3.6-4.8,5.2c-2.5,2.6-5.3,4.8-9,5.4c-5.8,1-9.5-2.9-8.3-8.6c0.9-3.9,2.8-7.4,5-10.7
				c0.3-0.5,0.6-0.9,0.7-1.6c-0.9,0.7-1.8,1.4-2.6,2.2c-4.9,5.3-9.7,10.7-14.5,16c-1,1-1.9,2.1-2.9,3.1c-0.9,1-1.9,1.2-3,0.7
				c-1.1-0.5-2.2-1.1-3-1.8c-1.8-1.5-2-2.8-0.9-4.8c5.2-9.5,10.5-19,15.9-28.5c1.1-1.9,2.3-2.2,4.3-1.3c0.2,0.1,0.4,0.2,0.6,0.3
				c4.7,2.4,4.9,3.3,2.2,7.7c-3.2,5.1-6.4,10.1-9.4,15.5c0.4-0.4,0.7-0.8,1.1-1.2c6.4-7,12.7-13.9,19.1-20.9c2-2.1,2.8-2.3,5.3-0.7
				c0,0,0.1,0.1,0.1,0.1c4.7,3,4.7,4,1.6,8.5c-3.6,5.1-7,10.3-10.3,15.5c-0.6,1-1,2.2-1.1,3.3c-0.1,0.7,0.3,1.8,0.8,2.2
				c0.5,0.3,1.6,0.3,2.2-0.1c1.3-0.9,2.6-1.9,3.6-3.1c7-7.7,12.5-16.4,18-25.1c1.6-2.4,3-5,4.5-7.4c1.2-1.9,2.1-2.3,4.1-1.4
				c1.5,0.7,2.9,1.8,4.2,2.8c0.8,0.7,0.8,1.6,0.2,2.6c-0.8,1.3-1.6,2.6-2,4c-2.4,8.6-3.4,17.3-3.7,26.1c0,0.6,0,1.3-0.1,1.9
				c-0.4,2.6-1.5,4.8-4.1,5.8c-2.6,1.1-4.8,0.2-6.8-1.4c-2.7-2.1-4.3-5-5.7-8C196.4-14.9,196.2-15.6,195.7-16.6z M206.5-30.3
				c-2.7,3.5-5.6,7.2-8.7,11.2c1.6,1.8,3.1,3.7,4.8,5.4c1,1,2,0.6,2.4-0.7c0.3-1.1,0.4-2.3,0.5-3.5
				C205.9-22.1,206.2-26.3,206.5-30.3z"/>
			<path d="M-109.6-55.3c-0.5,0-0.8,0-1.1,0.1c-3.5,1.1-6.1-2.1-6-5.6c0-0.4,1-1,1.5-1.1c3.3-0.3,6.7-0.5,10-0.7
				c4.9-0.3,9.9-0.6,14.8-0.8c2.5-0.1,4.7,0.7,6.5,2.4c0.7,0.6,1,1.6,1.5,2.5c1.5,0.1,3.4,0,5.3,0.3c2,0.3,3.7,1.3,4.2,3.4
				c0.5,2.2-0.5,4-2.3,5.3c-2.3,1.7-4.9,1.9-7.6,1.1c-2.1-0.6-3.8-1.8-4.4-4.1c-0.6-2.2,0.5-3.7,2.2-5c-3.9,0-7.6,0-11.9,0
				c1.9,1.7,1.3,3.1,0.4,4.6c-4,6.7-7.9,13.5-11.8,20.3c-4,6.9-8.3,13.7-13.9,19.5c-3.9,4-8.4,7.2-14.2,8.3
				c-9,1.7-18.9-4.1-21.5-12.6c-0.2-0.6-0.3-1.2-0.4-1.8c-0.2-2.8,1.3-4,4-3.3c3.5,0.9,6,2.5,6.4,6.6c0.3,3.2,4.1,5.1,7.6,3.8
				c2.1-0.9,4.3-2.2,5.8-4c3.1-3.6,6.1-7.4,8.5-11.4c5.4-8.9,10.6-18,15.8-27C-109.9-54.6-109.8-54.9-109.6-55.3z"/>
			<path d="M72.8-33.1c-0.1,4.5-1.4,7.7-3.1,10.8c-3.3,6-7.3,11.5-13.1,15.4C51.9-3.6,48.2-4,44.1-8c-0.2-0.2-0.5-0.5-0.7-0.7
				c-4.5-4.1-6.1-7-2.9-14.6c3.5-8.2,9.4-14.5,16.8-19.4c3.1-2.1,5.3-1.8,8.2,0.6c1.1,0.9,2.2,1.9,3.4,2.6
				C71.7-37.9,73-35.5,72.8-33.1z M50.2-10.1c0.7-0.4,2.1-1,3.1-2c5.5-5,9.8-10.8,13.2-17.4c0.6-1.2,1-2.5,1.2-3.9
				c0.3-1.5-0.5-2.4-2.1-1.9c-1.3,0.4-2.7,1-3.8,1.8c-5.4,3.9-9.7,8.8-13.1,14.6c-1,1.7-1.6,3.6-2.1,5.5
				C46.2-11.4,47.4-10.1,50.2-10.1z"/>
		</g>
	</g>
</g>
</svg>
